<svg width="1440" height="562" viewBox="0 0 1440 562" fill="none" xmlns="http://www.w3.org/2000/svg">
<rect width="1440" height="562" fill="#13A9B2"/>
<path fill-rule="evenodd" clip-rule="evenodd" d="M1440 169.884L1416 159.796C1392 149.709 1344 129.881 1296 109.706C1248 89.5301 1200 69.7026 1152 72.1375C1104 74.5725 1056 99.6179 1008 104.836C960 109.706 912 94.7479 864 99.6179C816 104.836 768 129.881 720 127.098C672 124.663 624 94.7479 576 94.7479C528 94.7479 480 124.663 432 142.404C384 159.796 336 164.666 288 167.449C240 169.884 192 169.884 144 162.231C96 154.926 48 139.621 24 132.316L0 124.663V34.5695L24 34.5695C48 34.5695 96 34.5695 144 34.5695C192 34.5695 240 34.5695 288 34.5695C336 34.5695 384 34.5695 432 34.5695C480 34.5695 528 34.5695 576 34.5695C624 34.5695 672 34.5695 720 34.5695C768 34.5695 816 34.5695 864 34.5695C912 34.5695 960 34.5695 1008 34.5695C1056 34.5695 1104 34.5695 1152 34.5695C1200 34.5695 1248 34.5695 1296 34.5695C1344 34.5695 1392 34.5695 1416 34.5695H1440V169.884Z" fill="#71CBD1"/>
<rect width="1440" height="50" fill="#71CBD1"/>
<circle cx="1003.49" cy="416.97" r="19.8114" fill="#FFD771"/>
<circle cx="1065.98" cy="494.977" r="11.0761" stroke="#FFD771" stroke-width="3.80172"/>
<path d="M975.99 288.436L1027.6 258.637L1027.6 318.236L975.99 288.436Z" fill="#41D2CA"/>
<path d="M1205 190.358L1256.61 160.558L1256.61 220.157L1205 190.358Z" fill="#07878E"/>
<path d="M913 288.437L986.047 246.263L986.047 330.61L913 288.437Z" fill="#07878E"/>
<circle r="20.0371" transform="matrix(-0.932466 0.361257 0.361257 0.932466 1079.41 192.757)" stroke="#FFD771" stroke-width="2.30374"/>
<circle cx="1257.92" cy="219.673" r="14.0117" transform="rotate(-21.1774 1257.92 219.673)" stroke="#FFD771" stroke-width="1.61098"/>
<circle cx="1189.17" cy="359.118" r="14.8172" transform="rotate(-21.1774 1189.17 359.118)" fill="#FFD771"/>
<circle cx="1195.92" cy="253.123" r="7.06616" transform="rotate(-21.1774 1195.92 253.123)" fill="#FFD771" stroke="#FFD771" stroke-width="1.61098"/>
<circle cx="1104.47" cy="118.132" r="7.06616" transform="rotate(-21.1774 1104.47 118.132)" fill="#FFD771" stroke="#FFD771" stroke-width="1.61098"/>
</svg>
