<svg width="36" height="45" viewBox="0 0 36 45" fill="none" xmlns="http://www.w3.org/2000/svg">
<path fill-rule="evenodd" clip-rule="evenodd" d="M11.9918 2.99854C13.4964 1.72448 15.6783 0.998535 18 0.998535C20.3217 0.998535 22.5036 1.72448 24.0082 2.99854H26C28.2091 2.99854 30 4.7894 30 6.99854H32C34.2091 6.99854 36 8.7894 36 10.9985V40.9985C36 43.2077 34.2091 44.9985 32 44.9985H4C1.79086 44.9985 0 43.2077 0 40.9985V10.9985C0 8.7894 1.79086 6.99854 4 6.99854H6C6 4.7894 7.79086 2.99854 10 2.99854H11.9918ZM26 12.9985C27.4806 12.9985 28.7733 12.1941 29.4649 10.9985H32V40.9985H4V10.9985H6.53513C7.22675 12.1941 8.51943 12.9985 10 12.9985H26ZM10 30.9988V26.9988H22V30.9988H10ZM10 18.9985V22.9985H26V18.9985H10ZM13.7153 6.99951L14.3133 6.31027C14.9704 5.55299 16.3789 4.99951 18 4.99951C19.6212 4.99951 21.0296 5.55299 21.6867 6.31027L22.2848 6.99951H26V8.99951H10V6.99951H12.8027H13.7153Z" fill="#13A9B2"/>
</svg>
