<svg xmlns="http://www.w3.org/2000/svg" width="48" height="48" fill="none"><path fill="#13A9B2" fill-rule="evenodd" d="M17.992 3.999c1.504-1.275 3.686-2 6.008-2s4.504.725 6.008 2H32a4 4 0 0 1 4 4h2a4 4 0 0 1 4 4v30a4 4 0 0 1-4 4H10a4 4 0 0 1-4-4v-30a4 4 0 0 1 4-4h2a4 4 0 0 1 4-4h1.992Zm14.008 10c1.48 0 2.773-.805 3.465-2H38v30H10v-30h2.535a3.998 3.998 0 0 0 3.465 2h16Zm-16 18v-4h12v4H16Zm0-12v4h16v-4H16Zm3.715-12 .598-.689C20.97 6.553 22.38 6 24 6s3.03.553 3.687 1.31l.598.69H32v2H16V8h3.715Z" clip-rule="evenodd"/></svg>