<svg width="1456" height="536" viewBox="0 0 1456 536" fill="none" xmlns="http://www.w3.org/2000/svg">
<circle cx="1399.22" cy="56.5479" r="56.5479" fill="#FFD771"/>
<path d="M1373.36 69.6774L1327.34 96.2461V43.1087L1373.36 69.6774Z" fill="#41D2CA"/>
<path d="M1429.51 69.6777L1364.38 107.279V32.0762L1429.51 69.6777Z" fill="#07878E"/>
<circle cx="1429.73" cy="230.73" r="13.1023" stroke="#FFD771" stroke-width="1.25531"/>
<circle cx="1380.53" cy="200.532" r="7.53188" fill="#FFD771"/>
<circle cx="1377" cy="153.001" r="3.37365" stroke="#FFD771" stroke-width="1.25531"/>
<circle cx="1419.69" cy="165.001" r="3.37365" fill="#FFD771" stroke="#FFD771" stroke-width="1.25531"/>
<path fill-rule="evenodd" clip-rule="evenodd" d="M0 399L24 409.213C48 419.427 96 439.501 144 459.928C192 480.355 240 500.429 288 497.964C336 495.499 384 470.141 432 464.859C480 459.928 528 475.072 576 470.141C624 464.859 672 439.501 720 442.319C768 444.784 816 475.072 864 475.072C912 475.072 960 444.784 1008 426.823C1056 409.213 1104 404.283 1152 401.465C1200 399 1248 399 1296 406.748C1344 414.144 1392 429.64 1416 437.036L1440 444.784V536H1416C1392 536 1344 536 1296 536C1248 536 1200 536 1152 536C1104 536 1056 536 1008 536C960 536 912 536 864 536C816 536 768 536 720 536C672 536 624 536 576 536C528 536 480 536 432 536C384 536 336 536 288 536C240 536 192 536 144 536C96 536 48 536 24 536H0V399Z" fill="#B8E5E8"/>
<path d="M151.283 407.705L111.321 430.777V384.632L151.283 407.705Z" fill="#41D2CA"/>
<path d="M200.046 407.705L143.489 440.358V375.051L200.046 407.705Z" fill="#07878E"/>
<circle cx="213.73" cy="490.73" r="13.1023" stroke="#FFD771" stroke-width="1.25531"/>
<circle cx="119.532" cy="493.532" r="7.53188" fill="#FFD771"/>
<path d="M36.2197 489.016L20.3051 498.204L20.3051 479.827L36.2197 489.016Z" fill="#41D2CA"/>
<path d="M55.6416 489.015L33.1184 502.019V476.012L55.6416 489.015Z" fill="#07878E"/>
</svg>
