<svg width="1440" height="1645" viewBox="0 0 1440 1645" fill="none" xmlns="http://www.w3.org/2000/svg">
<path fill-rule="evenodd" clip-rule="evenodd" d="M1440 101L1416 93.4708C1392 85.9412 1344 71.1417 1296 56.0826C1248 41.0234 1200 26.2239 1152 28.0414C1104 29.8589 1056 48.553 1008 52.4476C960 56.0825 912 44.918 864 48.553C816 52.4476 768 71.1417 720 69.0645C672 67.247 624 44.918 576 44.918C528 44.918 480 67.247 432 80.4887C384 93.4707 336 97.1057 288 99.1828C240 101 192 101 144 95.2882C96 89.8357 48 78.4115 24 72.9591L-5.87891e-06 67.247L0 0.000118252L24 0.00012035C48 0.000122448 96 0.000126644 144 0.000130841C192 0.000135037 240 0.000139233 288 0.00014343C336 0.000147626 384 0.000151822 432 0.000156018C480 0.000160215 528 0.000164411 576 0.000168607C624 0.000172804 672 0.000177 720 0.000181196C768 0.000185393 816 0.000189589 864 0.000193785C912 0.000197981 960 0.000202178 1008 0.000206374C1056 0.00021057 1104 0.000214767 1152 0.000218963C1200 0.000223159 1248 0.000227355 1296 0.000231552C1344 0.000235748 1392 0.000239944 1416 0.000242042L1440 0.000244141L1440 101Z" fill="#DCF2F4"/>
<circle r="12.6706" transform="matrix(0.999437 0.0335398 0.0335398 -0.999437 1316.28 1629.1)" stroke="#FFD771" stroke-width="2.30374"/>
<circle cx="1365.98" cy="1605.98" r="9.66591" transform="rotate(-178.078 1365.98 1605.98)" fill="#FFD771"/>
<circle cx="1336.3" cy="1502.12" r="4.32952" transform="rotate(-178.078 1336.3 1502.12)" fill="#FFD771" stroke="#FFD771" stroke-width="1.61098"/>
<circle r="27.8334" transform="matrix(0.928434 0.371497 0.371497 -0.928434 1107.26 637.096)" stroke="#FFD771" stroke-width="2.66667"/>
<circle r="7.16667" transform="matrix(0.928434 0.371497 0.371497 -0.928434 1161.2 766.027)" fill="#FFD771" stroke="#FFD771" stroke-width="2.66667"/>
<path d="M1188.62 593.855L1164.49 563.174L1149.98 599.418L1188.62 593.855Z" fill="#13A9B3"/>
<path d="M1148.49 618.797L1124.35 588.116L1109.85 624.36L1148.49 618.797Z" fill="#41D2CA"/>
<circle r="29.8334" transform="matrix(-1 0 0 1 1279.5 1077.83)" fill="#FFD771"/>
<path d="M1262.26 1089.56L1296.07 1109.08V1070.05L1262.26 1089.56Z" fill="#41D2CA"/>
<path d="M1221 1089.56L1268.85 1117.19V1061.94L1221 1089.56Z" fill="#07878E"/>
<circle r="44" transform="matrix(-1 0 0 1 173 1578)" fill="#FFD771"/>
<path d="M114.077 1600.9L80.2691 1581.38L80.2691 1620.42L114.077 1600.9Z" fill="#41D2CA"/>
<path d="M155.335 1600.9L107.488 1573.27L107.488 1628.52L155.335 1600.9Z" fill="#07878E"/>
<circle r="7.16667" transform="matrix(-1 0 0 1 1367.5 151.5)" stroke="#FFD771" stroke-width="2.66667"/>
<path d="M1369 93.5384L1402.81 113.057V74.0196L1369 93.5384Z" fill="#41D2CA"/>
</svg>
