<svg width="640" height="360" viewBox="0 0 640 360" fill="none" xmlns="http://www.w3.org/2000/svg">
<g clip-path="url(#clip0_386_4380)">
<rect width="640" height="360" fill="#E7F6F7"/>
<g filter="url(#filter0_dd_386_4380)">
<g clip-path="url(#clip1_386_4380)">
<g filter="url(#filter1_b_386_4380)">
<rect x="31" y="36" width="577.193" height="329" rx="7.21491" fill="white"/>
<rect x="30.8196" y="35.8196" width="577.554" height="329.361" rx="7.39529" stroke="black" stroke-opacity="0.12" stroke-width="0.360746"/>
</g>
<circle r="12.8705" transform="matrix(-0.48833 0.872659 0.872659 0.48833 605.837 185.079)" fill="#FFD771"/>
<circle r="4.53833" transform="matrix(-0.48833 0.872659 0.872659 0.48833 591.348 156.734)" stroke="#FFD771" stroke-width="0.825151"/>
<g filter="url(#filter2_di_386_4380)">
<path d="M31 47.5439C31 43.5031 31 41.4828 31.7864 39.9394C32.4781 38.5818 33.5818 37.4781 34.9394 36.7864C36.4828 36 38.5031 36 42.5439 36H596.649C600.69 36 602.71 36 604.254 36.7864C605.611 37.4781 606.715 38.5818 607.407 39.9394C608.193 41.4828 608.193 43.5031 608.193 47.5439V56.2018H31V47.5439Z" fill="white"/>
<path fill-rule="evenodd" clip-rule="evenodd" d="M41.1004 50.4299C43.4912 50.4299 45.4294 48.4917 45.4294 46.1009C45.4294 43.7101 43.4912 41.772 41.1004 41.772C38.7096 41.772 36.7715 43.7101 36.7715 46.1009C36.7715 48.4917 38.7096 50.4299 41.1004 50.4299Z" fill="#EC6A5E"/>
<path d="M45.249 46.1009C45.249 48.3921 43.3916 50.2495 41.1004 50.2495C38.8092 50.2495 36.9519 48.3921 36.9519 46.1009C36.9519 43.8097 38.8092 41.9523 41.1004 41.9523C43.3916 41.9523 45.249 43.8097 45.249 46.1009Z" stroke="black" stroke-opacity="0.12" stroke-width="0.360746"/>
<path fill-rule="evenodd" clip-rule="evenodd" d="M55.5301 50.4299C57.9209 50.4299 59.8591 48.4917 59.8591 46.1009C59.8591 43.7101 57.9209 41.772 55.5301 41.772C53.1393 41.772 51.2012 43.7101 51.2012 46.1009C51.2012 48.4917 53.1393 50.4299 55.5301 50.4299Z" fill="#F5BF4F"/>
<path d="M59.6787 46.1009C59.6787 48.3921 57.8213 50.2495 55.5301 50.2495C53.2389 50.2495 51.3815 48.3921 51.3815 46.1009C51.3815 43.8097 53.2389 41.9523 55.5301 41.9523C57.8213 41.9523 59.6787 43.8097 59.6787 46.1009Z" stroke="black" stroke-opacity="0.12" stroke-width="0.360746"/>
<path fill-rule="evenodd" clip-rule="evenodd" d="M69.9598 50.4299C72.3506 50.4299 74.2888 48.4917 74.2888 46.1009C74.2888 43.7101 72.3506 41.772 69.9598 41.772C67.569 41.772 65.6309 43.7101 65.6309 46.1009C65.6309 48.4917 67.569 50.4299 69.9598 50.4299Z" fill="#61C554"/>
<path d="M74.1084 46.1009C74.1084 48.3921 72.251 50.2495 69.9598 50.2495C67.6686 50.2495 65.8112 48.3921 65.8112 46.1009C65.8112 43.8097 67.6686 41.9523 69.9598 41.9523C72.251 41.9523 74.1084 43.8097 74.1084 46.1009Z" stroke="black" stroke-opacity="0.12" stroke-width="0.360746"/>
</g>
<path d="M286.765 130.129C285.565 130.129 284.526 129.869 283.649 129.349C282.783 128.818 282.113 128.085 281.64 127.15C281.167 126.204 280.93 125.113 280.93 123.878C280.93 122.631 281.167 121.54 281.64 120.605C282.113 119.658 282.783 118.92 283.649 118.389C284.526 117.858 285.565 117.592 286.765 117.592C288.185 117.592 289.345 117.938 290.246 118.631C291.146 119.324 291.718 120.293 291.96 121.54H289.917C289.755 120.836 289.409 120.276 288.878 119.86C288.347 119.445 287.637 119.237 286.748 119.237C285.536 119.237 284.578 119.653 283.874 120.484C283.169 121.303 282.817 122.435 282.817 123.878C282.817 125.309 283.169 126.435 283.874 127.254C284.578 128.074 285.536 128.484 286.748 128.484C287.637 128.484 288.347 128.287 288.878 127.895C289.409 127.502 289.755 126.966 289.917 126.285H291.96C291.718 127.485 291.146 128.426 290.246 129.107C289.345 129.788 288.185 130.129 286.765 130.129ZM297.926 130.129C297.106 130.129 296.367 129.944 295.709 129.575C295.063 129.194 294.549 128.668 294.168 127.999C293.787 127.318 293.597 126.527 293.597 125.627C293.597 124.726 293.787 123.941 294.168 123.272C294.561 122.591 295.086 122.065 295.744 121.696C296.402 121.315 297.135 121.124 297.943 121.124C298.763 121.124 299.496 121.315 300.142 121.696C300.8 122.065 301.32 122.591 301.7 123.272C302.093 123.941 302.289 124.726 302.289 125.627C302.289 126.527 302.093 127.318 301.7 127.999C301.32 128.668 300.8 129.194 300.142 129.575C299.484 129.944 298.745 130.129 297.926 130.129ZM297.926 128.553C298.364 128.553 298.768 128.443 299.138 128.224C299.519 128.005 299.825 127.681 300.055 127.254C300.286 126.816 300.402 126.273 300.402 125.627C300.402 124.98 300.286 124.443 300.055 124.016C299.836 123.578 299.536 123.249 299.155 123.029C298.786 122.81 298.382 122.7 297.943 122.7C297.504 122.7 297.094 122.81 296.714 123.029C296.344 123.249 296.044 123.578 295.813 124.016C295.582 124.443 295.467 124.98 295.467 125.627C295.467 126.273 295.582 126.816 295.813 127.254C296.044 127.681 296.344 128.005 296.714 128.224C297.083 128.443 297.487 128.553 297.926 128.553ZM304.274 129.921V121.332H305.902L306.04 122.839C306.306 122.308 306.693 121.892 307.201 121.592C307.72 121.28 308.315 121.124 308.984 121.124C310.023 121.124 310.837 121.448 311.426 122.094C312.026 122.741 312.326 123.705 312.326 124.986V129.921H310.508V125.176C310.508 123.514 309.827 122.683 308.465 122.683C307.784 122.683 307.218 122.925 306.768 123.41C306.329 123.895 306.11 124.588 306.11 125.488V129.921H304.274ZM318.003 127.289C317.553 127.289 317.137 127.237 316.756 127.133L316.012 127.86C316.139 127.941 316.294 128.01 316.479 128.068C316.664 128.126 316.924 128.178 317.258 128.224C317.593 128.27 318.049 128.316 318.626 128.362C319.769 128.466 320.594 128.743 321.102 129.194C321.61 129.632 321.864 130.221 321.864 130.96C321.864 131.468 321.726 131.947 321.449 132.397C321.183 132.859 320.762 133.228 320.185 133.505C319.619 133.794 318.892 133.938 318.003 133.938C316.802 133.938 315.827 133.707 315.077 133.246C314.338 132.795 313.968 132.108 313.968 131.185C313.968 130.827 314.061 130.469 314.245 130.111C314.442 129.765 314.748 129.436 315.163 129.124C314.921 129.02 314.707 128.911 314.522 128.795C314.349 128.668 314.193 128.541 314.055 128.414V127.999L315.544 126.475C314.875 125.898 314.54 125.142 314.54 124.207C314.54 123.641 314.672 123.127 314.938 122.666C315.215 122.192 315.613 121.817 316.133 121.54C316.652 121.263 317.276 121.124 318.003 121.124C318.488 121.124 318.938 121.194 319.354 121.332H322.557V122.544L321.033 122.631C321.31 123.104 321.449 123.629 321.449 124.207C321.449 124.784 321.31 125.303 321.033 125.765C320.768 126.227 320.375 126.596 319.856 126.873C319.348 127.15 318.73 127.289 318.003 127.289ZM318.003 125.852C318.534 125.852 318.961 125.713 319.284 125.436C319.619 125.148 319.786 124.743 319.786 124.224C319.786 123.693 319.619 123.289 319.284 123.012C318.961 122.735 318.534 122.596 318.003 122.596C317.46 122.596 317.022 122.735 316.687 123.012C316.364 123.289 316.202 123.693 316.202 124.224C316.202 124.743 316.364 125.148 316.687 125.436C317.022 125.713 317.46 125.852 318.003 125.852ZM315.7 131.012C315.7 131.508 315.919 131.878 316.358 132.12C316.797 132.374 317.345 132.501 318.003 132.501C318.638 132.501 319.152 132.362 319.544 132.085C319.936 131.82 320.133 131.462 320.133 131.012C320.133 130.677 320 130.388 319.734 130.146C319.469 129.915 318.967 129.771 318.228 129.713C317.674 129.678 317.183 129.627 316.756 129.557C316.352 129.777 316.075 130.013 315.925 130.267C315.775 130.521 315.7 130.769 315.7 131.012ZM324.194 129.921V121.332H325.839L325.995 122.96C326.295 122.394 326.711 121.95 327.242 121.627C327.784 121.292 328.436 121.124 329.198 121.124V123.047H328.696C328.188 123.047 327.732 123.133 327.328 123.306C326.936 123.468 326.618 123.751 326.376 124.155C326.145 124.547 326.03 125.096 326.03 125.8V129.921H324.194ZM333.681 130.129C332.954 130.129 332.354 130.007 331.88 129.765C331.407 129.523 331.055 129.205 330.824 128.813C330.593 128.409 330.478 127.97 330.478 127.497C330.478 126.666 330.801 126.008 331.447 125.523C332.094 125.038 333.017 124.795 334.218 124.795H336.469V124.64C336.469 123.97 336.284 123.468 335.915 123.133C335.557 122.798 335.089 122.631 334.512 122.631C334.004 122.631 333.56 122.758 333.179 123.012C332.81 123.254 332.584 123.618 332.504 124.103H330.668C330.726 123.479 330.934 122.948 331.292 122.51C331.661 122.06 332.123 121.719 332.677 121.488C333.242 121.246 333.86 121.124 334.53 121.124C335.73 121.124 336.659 121.442 337.317 122.077C337.975 122.7 338.304 123.554 338.304 124.64V129.921H336.711L336.556 128.449C336.313 128.922 335.961 129.321 335.499 129.644C335.038 129.967 334.431 130.129 333.681 130.129ZM334.045 128.64C334.541 128.64 334.957 128.524 335.291 128.293C335.638 128.051 335.903 127.733 336.088 127.341C336.284 126.948 336.405 126.515 336.452 126.042H334.408C333.681 126.042 333.162 126.169 332.85 126.423C332.55 126.677 332.4 126.995 332.4 127.375C332.4 127.768 332.544 128.08 332.833 128.311C333.133 128.53 333.537 128.64 334.045 128.64ZM343.877 129.921C343.034 129.921 342.365 129.719 341.869 129.315C341.372 128.899 341.124 128.166 341.124 127.116V122.873H339.652V121.332H341.124L341.349 119.15H342.959V121.332H345.384V122.873H342.959V127.116C342.959 127.589 343.058 127.918 343.254 128.103C343.462 128.276 343.814 128.362 344.31 128.362H345.297V129.921H343.877ZM350.705 130.129C349.62 130.129 348.725 129.863 348.021 129.332C347.317 128.801 346.913 128.097 346.809 127.22H348.661C348.754 127.612 348.973 127.953 349.319 128.241C349.666 128.518 350.122 128.657 350.687 128.657C351.242 128.657 351.646 128.541 351.9 128.311C352.153 128.08 352.28 127.814 352.28 127.514C352.28 127.075 352.102 126.781 351.744 126.631C351.397 126.469 350.913 126.325 350.289 126.198C349.804 126.094 349.319 125.956 348.835 125.782C348.361 125.609 347.963 125.367 347.64 125.055C347.328 124.732 347.172 124.299 347.172 123.756C347.172 123.006 347.461 122.383 348.038 121.886C348.615 121.378 349.423 121.124 350.462 121.124C351.42 121.124 352.194 121.355 352.783 121.817C353.383 122.279 353.735 122.931 353.839 123.774H352.073C352.015 123.404 351.842 123.116 351.553 122.908C351.276 122.7 350.901 122.596 350.428 122.596C349.966 122.596 349.608 122.694 349.354 122.891C349.1 123.075 348.973 123.318 348.973 123.618C348.973 123.918 349.146 124.155 349.493 124.328C349.85 124.501 350.318 124.657 350.895 124.795C351.472 124.922 352.003 125.072 352.488 125.246C352.985 125.407 353.383 125.65 353.683 125.973C353.983 126.296 354.133 126.769 354.133 127.393C354.145 128.178 353.839 128.83 353.216 129.349C352.604 129.869 351.767 130.129 350.705 130.129ZM356.518 126.337L356.31 117.8H358.284L358.076 126.337H356.518ZM357.349 130.025C356.991 130.025 356.697 129.915 356.466 129.696C356.247 129.465 356.137 129.194 356.137 128.882C356.137 128.559 356.247 128.287 356.466 128.068C356.697 127.837 356.991 127.722 357.349 127.722C357.684 127.722 357.961 127.837 358.18 128.068C358.411 128.287 358.527 128.559 358.527 128.882C358.527 129.194 358.411 129.465 358.18 129.696C357.961 129.915 357.684 130.025 357.349 130.025Z" fill="#053437"/>
<path d="M104.485 179.553V172.007L97.3639 158.341H101.758L106.455 168.129L111.121 158.341H115.455L108.364 172.007V179.553H104.485ZM122.368 179.916C120.913 179.916 119.6 179.583 118.428 178.916C117.277 178.25 116.358 177.331 115.671 176.159C115.004 174.967 114.671 173.593 114.671 172.038C114.671 170.482 115.014 169.119 115.701 167.947C116.388 166.755 117.307 165.826 118.459 165.159C119.63 164.492 120.943 164.159 122.398 164.159C123.832 164.159 125.125 164.492 126.277 165.159C127.448 165.826 128.368 166.755 129.034 167.947C129.721 169.119 130.064 170.482 130.064 172.038C130.064 173.593 129.721 174.967 129.034 176.159C128.368 177.331 127.448 178.25 126.277 178.916C125.105 179.583 123.802 179.916 122.368 179.916ZM122.368 176.553C123.378 176.553 124.256 176.179 125.004 175.432C125.751 174.664 126.125 173.533 126.125 172.038C126.125 170.543 125.751 169.422 125.004 168.674C124.256 167.906 123.388 167.523 122.398 167.523C121.368 167.523 120.479 167.906 119.731 168.674C119.004 169.422 118.64 170.543 118.64 172.038C118.64 173.533 119.004 174.664 119.731 175.432C120.479 176.179 121.358 176.553 122.368 176.553ZM139.169 179.916C137.29 179.916 135.835 179.331 134.805 178.159C133.795 176.987 133.29 175.27 133.29 173.007V164.523H137.139V172.644C137.139 173.937 137.401 174.927 137.926 175.613C138.452 176.3 139.28 176.644 140.411 176.644C141.482 176.644 142.361 176.26 143.048 175.492C143.755 174.725 144.108 173.654 144.108 172.28V164.523H147.987V179.553H144.563L144.26 177.007C143.795 177.896 143.118 178.603 142.229 179.128C141.361 179.654 140.34 179.916 139.169 179.916ZM151.969 179.553V164.523H155.423L155.787 167.341C156.332 166.371 157.07 165.603 157.999 165.038C158.948 164.452 160.059 164.159 161.332 164.159V168.25H160.241C159.393 168.25 158.635 168.381 157.968 168.644C157.302 168.906 156.777 169.361 156.393 170.007C156.029 170.654 155.847 171.553 155.847 172.704V179.553H151.969ZM177.567 175.068C176.84 175.068 176.163 174.987 175.537 174.826L174.416 175.947C174.759 176.129 175.224 176.28 175.81 176.401C176.395 176.522 177.345 176.644 178.658 176.765C180.658 176.947 182.113 177.421 183.022 178.189C183.931 178.957 184.385 180.017 184.385 181.371C184.385 182.26 184.143 183.098 183.658 183.886C183.173 184.694 182.426 185.341 181.416 185.825C180.406 186.33 179.113 186.583 177.537 186.583C175.395 186.583 173.668 186.179 172.355 185.371C171.042 184.583 170.385 183.391 170.385 181.795C170.385 180.442 171.042 179.27 172.355 178.28C171.951 178.098 171.598 177.906 171.295 177.704C171.012 177.502 170.759 177.29 170.537 177.068V176.371L173.173 173.583C172.002 172.553 171.416 171.23 171.416 169.613C171.416 168.603 171.658 167.684 172.143 166.856C172.648 166.028 173.355 165.371 174.264 164.886C175.173 164.401 176.274 164.159 177.567 164.159C178.416 164.159 179.204 164.28 179.931 164.523H185.628V166.886L183.052 167.068C183.456 167.836 183.658 168.684 183.658 169.613C183.658 170.624 183.416 171.543 182.931 172.371C182.446 173.199 181.739 173.856 180.81 174.341C179.9 174.826 178.82 175.068 177.567 175.068ZM177.567 172.098C178.355 172.098 179.002 171.886 179.507 171.462C180.032 171.038 180.294 170.432 180.294 169.644C180.294 168.856 180.032 168.25 179.507 167.826C179.002 167.401 178.355 167.189 177.567 167.189C176.739 167.189 176.072 167.401 175.567 167.826C175.062 168.25 174.81 168.856 174.81 169.644C174.81 170.432 175.062 171.038 175.567 171.462C176.072 171.886 176.739 172.098 177.567 172.098ZM173.931 181.401C173.931 182.149 174.274 182.704 174.961 183.068C175.668 183.452 176.527 183.644 177.537 183.644C178.507 183.644 179.294 183.442 179.9 183.038C180.507 182.654 180.81 182.128 180.81 181.462C180.81 180.916 180.608 180.462 180.204 180.098C179.82 179.735 179.042 179.512 177.87 179.432C177.042 179.371 176.274 179.28 175.567 179.159C174.981 179.482 174.557 179.836 174.295 180.219C174.052 180.603 173.931 180.997 173.931 181.401ZM188.456 179.553V164.523H191.911L192.274 167.341C192.82 166.371 193.557 165.603 194.486 165.038C195.436 164.452 196.547 164.159 197.82 164.159V168.25H196.729C195.88 168.25 195.123 168.381 194.456 168.644C193.789 168.906 193.264 169.361 192.88 170.007C192.517 170.654 192.335 171.553 192.335 172.704V179.553H188.456ZM206.107 179.916C204.228 179.916 202.774 179.331 201.743 178.159C200.733 176.987 200.228 175.27 200.228 173.007V164.523H204.077V172.644C204.077 173.937 204.339 174.927 204.864 175.613C205.39 176.3 206.218 176.644 207.349 176.644C208.42 176.644 209.299 176.26 209.986 175.492C210.693 174.725 211.046 173.654 211.046 172.28V164.523H214.925V179.553H211.501L211.198 177.007C210.733 177.896 210.056 178.603 209.167 179.128C208.299 179.654 207.279 179.916 206.107 179.916ZM226.21 179.916C224.694 179.916 223.351 179.593 222.179 178.947C221.008 178.3 220.088 177.391 219.422 176.219C218.755 175.048 218.422 173.694 218.422 172.159C218.422 170.603 218.745 169.22 219.391 168.007C220.058 166.795 220.967 165.856 222.119 165.189C223.29 164.502 224.664 164.159 226.24 164.159C227.715 164.159 229.018 164.482 230.149 165.129C231.28 165.775 232.159 166.664 232.785 167.795C233.432 168.906 233.755 170.149 233.755 171.523C233.755 171.745 233.745 171.977 233.725 172.219C233.725 172.462 233.714 172.714 233.694 172.977H222.27C222.351 174.149 222.755 175.068 223.482 175.735C224.23 176.401 225.129 176.735 226.179 176.735C226.967 176.735 227.624 176.563 228.149 176.219C228.694 175.856 229.098 175.391 229.361 174.826H233.3C233.018 175.775 232.543 176.644 231.876 177.432C231.23 178.199 230.422 178.805 229.452 179.25C228.502 179.694 227.422 179.916 226.21 179.916ZM226.24 167.31C225.29 167.31 224.452 167.583 223.725 168.129C222.997 168.654 222.533 169.462 222.331 170.553H229.816C229.755 169.563 229.391 168.775 228.725 168.189C228.058 167.603 227.23 167.31 226.24 167.31ZM237.017 186.219V164.523H240.472L240.896 166.674C241.381 166.007 242.017 165.422 242.805 164.917C243.613 164.412 244.653 164.159 245.926 164.159C247.34 164.159 248.603 164.502 249.714 165.189C250.825 165.876 251.704 166.816 252.35 168.007C252.997 169.199 253.32 170.553 253.32 172.068C253.32 173.583 252.997 174.937 252.35 176.129C251.704 177.3 250.825 178.23 249.714 178.916C248.603 179.583 247.34 179.916 245.926 179.916C244.795 179.916 243.805 179.704 242.956 179.28C242.108 178.856 241.421 178.26 240.896 177.492V186.219H237.017ZM245.108 176.522C246.34 176.522 247.36 176.108 248.169 175.28C248.977 174.452 249.381 173.381 249.381 172.068C249.381 170.755 248.977 169.674 248.169 168.826C247.36 167.977 246.34 167.553 245.108 167.553C243.855 167.553 242.825 167.977 242.017 168.826C241.229 169.654 240.835 170.725 240.835 172.038C240.835 173.351 241.229 174.432 242.017 175.28C242.825 176.108 243.855 176.522 245.108 176.522ZM262.997 179.916C261.664 179.916 260.492 179.704 259.482 179.28C258.472 178.836 257.664 178.23 257.058 177.462C256.452 176.694 256.088 175.805 255.967 174.795H259.876C259.997 175.381 260.32 175.886 260.845 176.31C261.391 176.714 262.088 176.916 262.936 176.916C263.785 176.916 264.401 176.745 264.785 176.401C265.189 176.058 265.391 175.664 265.391 175.219C265.391 174.573 265.108 174.139 264.542 173.916C263.977 173.674 263.189 173.442 262.179 173.219C261.532 173.078 260.876 172.906 260.209 172.704C259.542 172.502 258.926 172.25 258.361 171.947C257.815 171.624 257.371 171.22 257.027 170.735C256.684 170.23 256.512 169.613 256.512 168.886C256.512 167.553 257.037 166.432 258.088 165.523C259.159 164.614 260.654 164.159 262.573 164.159C264.35 164.159 265.765 164.573 266.815 165.401C267.886 166.23 268.522 167.371 268.724 168.826H265.058C264.835 167.715 263.997 167.159 262.542 167.159C261.815 167.159 261.249 167.3 260.845 167.583C260.462 167.866 260.27 168.22 260.27 168.644C260.27 169.088 260.563 169.442 261.148 169.704C261.734 169.967 262.512 170.209 263.482 170.432C264.532 170.674 265.492 170.947 266.361 171.25C267.249 171.533 267.956 171.967 268.482 172.553C269.007 173.118 269.27 173.937 269.27 175.007C269.29 175.937 269.047 176.775 268.542 177.522C268.037 178.27 267.31 178.856 266.361 179.28C265.411 179.704 264.29 179.916 262.997 179.916ZM279.926 179.553V157.735H283.805V166.826C284.31 165.997 284.987 165.351 285.835 164.886C286.704 164.401 287.694 164.159 288.805 164.159C290.663 164.159 292.098 164.745 293.108 165.917C294.138 167.088 294.653 168.805 294.653 171.068V179.553H290.805V171.432C290.805 170.139 290.542 169.149 290.017 168.462C289.512 167.775 288.704 167.432 287.593 167.432C286.502 167.432 285.593 167.816 284.865 168.583C284.158 169.351 283.805 170.422 283.805 171.795V179.553H279.926ZM303.544 179.916C302.251 179.916 301.19 179.714 300.362 179.31C299.534 178.886 298.918 178.331 298.514 177.644C298.11 176.957 297.908 176.199 297.908 175.371C297.908 173.977 298.453 172.846 299.544 171.977C300.635 171.108 302.271 170.674 304.453 170.674H308.271V170.31C308.271 169.28 307.978 168.523 307.392 168.038C306.807 167.553 306.079 167.31 305.211 167.31C304.423 167.31 303.736 167.502 303.15 167.886C302.564 168.25 302.201 168.795 302.059 169.523H298.271C298.372 168.432 298.736 167.482 299.362 166.674C300.009 165.866 300.837 165.25 301.847 164.826C302.857 164.381 303.988 164.159 305.241 164.159C307.382 164.159 309.069 164.694 310.301 165.765C311.534 166.836 312.15 168.351 312.15 170.31V179.553H308.847L308.483 177.129C308.039 177.937 307.413 178.603 306.605 179.128C305.817 179.654 304.796 179.916 303.544 179.916ZM304.423 176.886C305.534 176.886 306.392 176.522 306.998 175.795C307.625 175.068 308.019 174.169 308.18 173.098H304.877C303.847 173.098 303.11 173.29 302.665 173.674C302.221 174.038 301.999 174.492 301.999 175.038C301.999 175.623 302.221 176.078 302.665 176.401C303.11 176.724 303.695 176.886 304.423 176.886ZM319.468 179.553L313.953 164.523H318.013L321.832 175.886L325.65 164.523H329.71L324.165 179.553H319.468ZM338.72 179.916C337.205 179.916 335.861 179.593 334.69 178.947C333.518 178.3 332.599 177.391 331.932 176.219C331.265 175.048 330.932 173.694 330.932 172.159C330.932 170.603 331.255 169.22 331.902 168.007C332.568 166.795 333.478 165.856 334.629 165.189C335.801 164.502 337.174 164.159 338.75 164.159C340.225 164.159 341.528 164.482 342.659 165.129C343.791 165.775 344.669 166.664 345.296 167.795C345.942 168.906 346.265 170.149 346.265 171.523C346.265 171.745 346.255 171.977 346.235 172.219C346.235 172.462 346.225 172.714 346.205 172.977H334.781C334.861 174.149 335.265 175.068 335.993 175.735C336.74 176.401 337.639 176.735 338.69 176.735C339.477 176.735 340.134 176.563 340.659 176.219C341.205 175.856 341.609 175.391 341.871 174.826H345.811C345.528 175.775 345.053 176.644 344.386 177.432C343.74 178.199 342.932 178.805 341.962 179.25C341.013 179.694 339.932 179.916 338.72 179.916ZM338.75 167.31C337.801 167.31 336.962 167.583 336.235 168.129C335.508 168.654 335.043 169.462 334.841 170.553H342.326C342.265 169.563 341.902 168.775 341.235 168.189C340.568 167.603 339.74 167.31 338.75 167.31ZM365.657 179.916C364.526 179.916 363.536 179.704 362.687 179.28C361.839 178.856 361.152 178.26 360.627 177.492L360.203 179.553H356.748V157.735H360.627V166.674C361.112 166.007 361.748 165.422 362.536 164.917C363.344 164.412 364.384 164.159 365.657 164.159C367.071 164.159 368.334 164.502 369.445 165.189C370.556 165.876 371.435 166.816 372.081 168.007C372.728 169.199 373.051 170.553 373.051 172.068C373.051 173.583 372.728 174.937 372.081 176.129C371.435 177.3 370.556 178.23 369.445 178.916C368.334 179.583 367.071 179.916 365.657 179.916ZM364.839 176.522C366.071 176.522 367.091 176.108 367.899 175.28C368.707 174.452 369.112 173.381 369.112 172.068C369.112 170.755 368.707 169.674 367.899 168.826C367.091 167.977 366.071 167.553 364.839 167.553C363.586 167.553 362.556 167.977 361.748 168.826C360.96 169.654 360.566 170.725 360.566 172.038C360.566 173.351 360.96 174.432 361.748 175.28C362.556 176.108 363.586 176.522 364.839 176.522ZM383.819 179.916C382.304 179.916 380.96 179.593 379.788 178.947C378.617 178.3 377.698 177.391 377.031 176.219C376.364 175.048 376.031 173.694 376.031 172.159C376.031 170.603 376.354 169.22 377.001 168.007C377.667 166.795 378.576 165.856 379.728 165.189C380.9 164.502 382.273 164.159 383.849 164.159C385.324 164.159 386.627 164.482 387.758 165.129C388.889 165.775 389.768 166.664 390.394 167.795C391.041 168.906 391.364 170.149 391.364 171.523C391.364 171.745 391.354 171.977 391.334 172.219C391.334 172.462 391.324 172.714 391.303 172.977H379.879C379.96 174.149 380.364 175.068 381.092 175.735C381.839 176.401 382.738 176.735 383.788 176.735C384.576 176.735 385.233 176.563 385.758 176.219C386.304 175.856 386.708 175.391 386.97 174.826H390.91C390.627 175.775 390.152 176.644 389.485 177.432C388.839 178.199 388.031 178.805 387.061 179.25C386.112 179.694 385.031 179.916 383.819 179.916ZM383.849 167.31C382.9 167.31 382.061 167.583 381.334 168.129C380.607 168.654 380.142 169.462 379.94 170.553H387.425C387.364 169.563 387.001 168.775 386.334 168.189C385.667 167.603 384.839 167.31 383.849 167.31ZM401.929 179.916C400.414 179.916 399.071 179.593 397.899 178.947C396.727 178.3 395.808 177.391 395.141 176.219C394.475 175.048 394.142 173.694 394.142 172.159C394.142 170.603 394.465 169.22 395.111 168.007C395.778 166.795 396.687 165.856 397.838 165.189C399.01 164.502 400.384 164.159 401.96 164.159C403.434 164.159 404.737 164.482 405.869 165.129C407 165.775 407.879 166.664 408.505 167.795C409.151 168.906 409.475 170.149 409.475 171.523C409.475 171.745 409.465 171.977 409.444 172.219C409.444 172.462 409.434 172.714 409.414 172.977H397.99C398.071 174.149 398.475 175.068 399.202 175.735C399.95 176.401 400.848 176.735 401.899 176.735C402.687 176.735 403.343 176.563 403.869 176.219C404.414 175.856 404.818 175.391 405.081 174.826H409.02C408.737 175.775 408.263 176.644 407.596 177.432C406.949 178.199 406.141 178.805 405.172 179.25C404.222 179.694 403.141 179.916 401.929 179.916ZM401.96 167.31C401.01 167.31 400.172 167.583 399.444 168.129C398.717 168.654 398.253 169.462 398.051 170.553H405.535C405.475 169.563 405.111 168.775 404.444 168.189C403.778 167.603 402.949 167.31 401.96 167.31ZM412.737 179.553V164.523H416.161L416.464 167.068C416.929 166.179 417.595 165.472 418.464 164.947C419.353 164.422 420.393 164.159 421.585 164.159C423.444 164.159 424.888 164.745 425.919 165.917C426.949 167.088 427.464 168.805 427.464 171.068V179.553H423.585V171.432C423.585 170.139 423.323 169.149 422.797 168.462C422.272 167.775 421.454 167.432 420.343 167.432C419.252 167.432 418.353 167.816 417.646 168.583C416.959 169.351 416.616 170.422 416.616 171.795V179.553H412.737ZM439.09 179.553V167.765H437.03V164.523H439.09V162.765C439.09 160.947 439.545 159.654 440.454 158.886C441.383 158.119 442.636 157.735 444.212 157.735H445.878V161.038H444.818C444.151 161.038 443.676 161.169 443.393 161.432C443.111 161.694 442.969 162.139 442.969 162.765V164.523H446.212V167.765H442.969V179.553H439.09ZM455.904 179.916C454.449 179.916 453.136 179.583 451.964 178.916C450.813 178.25 449.894 177.331 449.207 176.159C448.54 174.967 448.207 173.593 448.207 172.038C448.207 170.482 448.55 169.119 449.237 167.947C449.924 166.755 450.843 165.826 451.995 165.159C453.166 164.492 454.479 164.159 455.934 164.159C457.368 164.159 458.661 164.492 459.813 165.159C460.984 165.826 461.904 166.755 462.57 167.947C463.257 169.119 463.601 170.482 463.601 172.038C463.601 173.593 463.257 174.967 462.57 176.159C461.904 177.331 460.984 178.25 459.813 178.916C458.641 179.583 457.338 179.916 455.904 179.916ZM455.904 176.553C456.914 176.553 457.793 176.179 458.54 175.432C459.288 174.664 459.661 173.533 459.661 172.038C459.661 170.543 459.288 169.422 458.54 168.674C457.793 167.906 456.924 167.523 455.934 167.523C454.904 167.523 454.015 167.906 453.267 168.674C452.54 169.422 452.176 170.543 452.176 172.038C452.176 173.533 452.54 174.664 453.267 175.432C454.015 176.179 454.894 176.553 455.904 176.553ZM467.069 179.553V164.523H470.523L470.887 167.341C471.432 166.371 472.17 165.603 473.099 165.038C474.048 164.452 475.159 164.159 476.432 164.159V168.25H475.341C474.493 168.25 473.735 168.381 473.068 168.644C472.402 168.906 471.877 169.361 471.493 170.007C471.129 170.654 470.947 171.553 470.947 172.704V179.553H467.069ZM479.083 179.553V164.523H482.507L482.841 166.553C483.325 165.826 483.962 165.25 484.75 164.826C485.558 164.381 486.487 164.159 487.538 164.159C489.861 164.159 491.507 165.058 492.477 166.856C493.022 166.028 493.75 165.371 494.659 164.886C495.588 164.401 496.598 164.159 497.689 164.159C499.648 164.159 501.154 164.745 502.204 165.917C503.255 167.088 503.78 168.805 503.78 171.068V179.553H499.901V171.432C499.901 170.139 499.648 169.149 499.143 168.462C498.659 167.775 497.901 167.432 496.871 167.432C495.82 167.432 494.972 167.816 494.325 168.583C493.699 169.351 493.386 170.422 493.386 171.795V179.553H489.507V171.432C489.507 170.139 489.255 169.149 488.75 168.462C488.245 167.775 487.467 167.432 486.416 167.432C485.386 167.432 484.548 167.816 483.901 168.583C483.275 169.351 482.962 170.422 482.962 171.795V179.553H479.083ZM514.765 179.916C513.25 179.916 511.907 179.593 510.735 178.947C509.563 178.3 508.644 177.391 507.977 176.219C507.311 175.048 506.977 173.694 506.977 172.159C506.977 170.603 507.301 169.22 507.947 168.007C508.614 166.795 509.523 165.856 510.674 165.189C511.846 164.502 513.22 164.159 514.795 164.159C516.27 164.159 517.573 164.482 518.705 165.129C519.836 165.775 520.715 166.664 521.341 167.795C521.987 168.906 522.311 170.149 522.311 171.523C522.311 171.745 522.3 171.977 522.28 172.219C522.28 172.462 522.27 172.714 522.25 172.977H510.826C510.907 174.149 511.311 175.068 512.038 175.735C512.785 176.401 513.684 176.735 514.735 176.735C515.523 176.735 516.179 176.563 516.705 176.219C517.25 175.856 517.654 175.391 517.917 174.826H521.856C521.573 175.775 521.098 176.644 520.432 177.432C519.785 178.199 518.977 178.805 518.008 179.25C517.058 179.694 515.977 179.916 514.765 179.916ZM514.795 167.31C513.846 167.31 513.008 167.583 512.28 168.129C511.553 168.654 511.088 169.462 510.886 170.553H518.371C518.311 169.563 517.947 168.775 517.28 168.189C516.614 167.603 515.785 167.31 514.795 167.31ZM532.482 179.916C531.068 179.916 529.805 179.573 528.694 178.886C527.583 178.199 526.704 177.26 526.058 176.068C525.411 174.876 525.088 173.523 525.088 172.007C525.088 170.492 525.411 169.149 526.058 167.977C526.704 166.785 527.583 165.856 528.694 165.189C529.805 164.502 531.068 164.159 532.482 164.159C533.613 164.159 534.603 164.371 535.451 164.795C536.3 165.22 536.987 165.816 537.512 166.583V157.735H541.391V179.553H537.936L537.512 177.401C537.027 178.068 536.381 178.654 535.573 179.159C534.785 179.664 533.755 179.916 532.482 179.916ZM533.3 176.522C534.552 176.522 535.573 176.108 536.361 175.28C537.169 174.432 537.573 173.351 537.573 172.038C537.573 170.725 537.169 169.654 536.361 168.826C535.573 167.977 534.552 167.553 533.3 167.553C532.068 167.553 531.047 167.967 530.239 168.795C529.431 169.624 529.027 170.694 529.027 172.007C529.027 173.32 529.431 174.401 530.239 175.25C531.047 176.098 532.068 176.522 533.3 176.522Z" fill="#053437"/>
<path fill-rule="evenodd" clip-rule="evenodd" d="M31 273.456C31 268.49 36.7518 265.736 40.6199 268.851C50.2398 276.596 69.4795 291.82 88.7193 307.31C107.959 322.801 127.199 338.025 146.439 336.155C165.678 334.286 184.918 315.056 204.158 311.05C223.398 307.31 242.637 318.795 261.877 315.056C281.117 311.05 300.357 291.82 319.596 293.956C338.836 295.826 358.076 318.795 377.316 318.795C396.556 318.795 415.795 295.826 435.035 282.205C454.275 268.851 473.515 265.111 492.754 262.975C511.994 261.105 531.234 261.105 550.474 266.981C569.714 272.59 588.953 284.341 598.573 289.95L602.632 292.429C604.682 293.681 605.707 294.307 606.447 295.167C607.074 295.896 607.55 296.744 607.845 297.66C608.193 298.739 608.193 299.94 608.193 302.342V355.38C608.193 357.617 608.193 358.735 607.947 359.652C607.28 362.142 605.335 364.087 602.845 364.754C601.928 365 600.81 365 598.573 365C588.953 365 569.714 365 550.474 365C531.234 365 511.994 365 492.754 365C473.515 365 454.275 365 435.035 365C415.795 365 396.556 365 377.316 365C358.076 365 338.836 365 319.596 365C300.357 365 281.117 365 261.877 365C242.637 365 223.398 365 204.158 365C184.918 365 165.678 365 146.439 365C127.199 365 107.959 365 88.7193 365C69.4795 365 50.2398 365 40.6199 365C38.3833 365 37.2651 365 36.3476 364.754C33.8577 364.087 31.913 362.142 31.2458 359.652C31 358.735 31 357.617 31 355.38V273.456Z" fill="#E7F6F7"/>
<circle cx="81.005" cy="246.897" r="21.5554" stroke="#FFD771" stroke-width="2.06519"/>
<circle cx="33.2905" cy="178.981" r="11.3585" stroke="#FFD771" stroke-width="2.06519"/>
<path d="M55.4053 169.774L38.7246 179.404V160.143L55.4053 169.774Z" fill="#41D2CA"/>
<circle r="12.8705" transform="matrix(-0.48833 0.872659 0.872659 0.48833 33.3645 337.784)" fill="#FFD771"/>
<path d="M98.376 268.492L72.1939 283.609V253.376L98.376 268.492Z" fill="#41D2CA"/>
<path d="M130.328 268.492L93.2738 289.886V247.099L130.328 268.492Z" fill="#07878E"/>
<path d="M502.66 335.058L489.278 342.784V327.331L502.66 335.058Z" fill="#41D2CA"/>
<path d="M518.992 335.058L500.053 345.992V324.123L518.992 335.058Z" fill="#07878E"/>
<path d="M56.0576 342.995L42.6755 350.721V335.268L56.0576 342.995Z" fill="#41D2CA"/>
<path d="M72.3896 342.995L53.4505 353.929V332.06L72.3896 342.995Z" fill="#07878E"/>
<path d="M165.003 325.679L151.621 333.405V317.953L165.003 325.679Z" fill="#41D2CA"/>
<path d="M181.334 325.679L162.395 336.613V314.744L181.334 325.679Z" fill="#07878E"/>
<circle cx="597.789" cy="286.776" r="35.7715" fill="#FFD771"/>
<path d="M565.902 275.707L539.72 290.823V260.591L565.902 275.707Z" fill="#41D2CA"/>
<path d="M597.854 275.707L560.8 297.101V254.314L597.854 275.707Z" fill="#07878E"/>
<mask id="mask0_386_4380" style="mask-type:alpha" maskUnits="userSpaceOnUse" x="282" y="212" width="75" height="74">
<rect x="282.8" y="212.044" width="73.2976" height="73.2976" fill="#053437"/>
</mask>
<g mask="url(#mask0_386_4380)">
<path d="M315.173 262.741L336.704 241.21L332.429 236.934L315.173 254.19L306.469 245.486L302.193 249.761L315.173 262.741ZM319.449 279.233C315.224 279.233 311.254 278.431 307.538 276.827C303.822 275.224 300.59 273.049 297.841 270.3C295.093 267.551 292.917 264.319 291.315 260.603C289.71 256.888 288.908 252.917 288.908 248.693C288.908 244.468 289.71 240.497 291.315 236.782C292.917 233.066 295.093 229.834 297.841 227.085C300.59 224.336 303.822 222.16 307.538 220.555C311.254 218.953 315.224 218.152 319.449 218.152C323.674 218.152 327.644 218.953 331.36 220.555C335.076 222.16 338.308 224.336 341.056 227.085C343.805 229.834 345.981 233.066 347.583 236.782C349.187 240.497 349.99 244.468 349.99 248.693C349.99 252.917 349.187 256.888 347.583 260.603C345.981 264.319 343.805 267.551 341.056 270.3C338.308 273.049 335.076 275.224 331.36 276.827C327.644 278.431 323.674 279.233 319.449 279.233ZM319.449 273.125C326.27 273.125 332.047 270.758 336.781 266.024C341.514 261.291 343.881 255.513 343.881 248.693C343.881 241.872 341.514 236.094 336.781 231.361C332.047 226.627 326.27 224.26 319.449 224.26C312.628 224.26 306.851 226.627 302.117 231.361C297.383 236.094 295.016 241.872 295.016 248.693C295.016 255.513 297.383 261.291 302.117 266.024C306.851 270.758 312.628 273.125 319.449 273.125Z" fill="#053437"/>
</g>
</g>
</g>
</g>
<defs>
<filter id="filter0_dd_386_4380" x="9.35526" y="21.5702" width="620.483" height="383.112" filterUnits="userSpaceOnUse" color-interpolation-filters="sRGB">
<feFlood flood-opacity="0" result="BackgroundImageFix"/>
<feColorMatrix in="SourceAlpha" type="matrix" values="0 0 0 0 0 0 0 0 0 0 0 0 0 0 0 0 0 0 127 0" result="hardAlpha"/>
<feOffset dy="18.0373"/>
<feGaussianBlur stdDeviation="10.8224"/>
<feComposite in2="hardAlpha" operator="out"/>
<feColorMatrix type="matrix" values="0 0 0 0 0 0 0 0 0 0 0 0 0 0 0 0 0 0 0.35 0"/>
<feBlend mode="normal" in2="BackgroundImageFix" result="effect1_dropShadow_386_4380"/>
<feColorMatrix in="SourceAlpha" type="matrix" values="0 0 0 0 0 0 0 0 0 0 0 0 0 0 0 0 0 0 127 0" result="hardAlpha"/>
<feOffset/>
<feGaussianBlur stdDeviation="7.21491"/>
<feComposite in2="hardAlpha" operator="out"/>
<feColorMatrix type="matrix" values="0 0 0 0 0 0 0 0 0 0 0 0 0 0 0 0 0 0 0.15 0"/>
<feBlend mode="normal" in2="effect1_dropShadow_386_4380" result="effect2_dropShadow_386_4380"/>
<feBlend mode="normal" in="SourceGraphic" in2="effect2_dropShadow_386_4380" result="shape"/>
</filter>
<filter id="filter1_b_386_4380" x="-27.0797" y="-22.0801" width="693.353" height="445.16" filterUnits="userSpaceOnUse" color-interpolation-filters="sRGB">
<feFlood flood-opacity="0" result="BackgroundImageFix"/>
<feGaussianBlur in="BackgroundImageFix" stdDeviation="28.8596"/>
<feComposite in2="SourceAlpha" operator="in" result="effect1_backgroundBlur_386_4380"/>
<feBlend mode="normal" in="SourceGraphic" in2="effect1_backgroundBlur_386_4380" result="shape"/>
</filter>
<filter id="filter2_di_386_4380" x="31" y="36" width="577.193" height="20.5624" filterUnits="userSpaceOnUse" color-interpolation-filters="sRGB">
<feFlood flood-opacity="0" result="BackgroundImageFix"/>
<feColorMatrix in="SourceAlpha" type="matrix" values="0 0 0 0 0 0 0 0 0 0 0 0 0 0 0 0 0 0 127 0" result="hardAlpha"/>
<feOffset dy="0.360746"/>
<feColorMatrix type="matrix" values="0 0 0 0 0 0 0 0 0 0 0 0 0 0 0 0 0 0 0.15 0"/>
<feBlend mode="normal" in2="BackgroundImageFix" result="effect1_dropShadow_386_4380"/>
<feBlend mode="normal" in="SourceGraphic" in2="effect1_dropShadow_386_4380" result="shape"/>
<feColorMatrix in="SourceAlpha" type="matrix" values="0 0 0 0 0 0 0 0 0 0 0 0 0 0 0 0 0 0 127 0" result="hardAlpha"/>
<feOffset dy="-0.360746"/>
<feComposite in2="hardAlpha" operator="arithmetic" k2="-1" k3="1"/>
<feColorMatrix type="matrix" values="0 0 0 0 0 0 0 0 0 0 0 0 0 0 0 0 0 0 0.05 0"/>
<feBlend mode="normal" in2="shape" result="effect2_innerShadow_386_4380"/>
</filter>
<clipPath id="clip0_386_4380">
<rect width="640" height="360" fill="white"/>
</clipPath>
<clipPath id="clip1_386_4380">
<rect x="31" y="36" width="577.193" height="329" rx="7.21491" fill="white"/>
</clipPath>
</defs>
</svg>
