<svg width="48" height="20" viewBox="0 0 48 20" fill="none" xmlns="http://www.w3.org/2000/svg">
<path fill-rule="evenodd" clip-rule="evenodd" d="M2 10C0.89543 10 0 9.10457 0 8C0 6.89543 0.89543 6 2 6H2.83209C4.3752 2.46819 7.89936 0 12 0C15.6488 0 18.8412 1.95424 20.5875 4.87315C21.5691 4.31608 22.7529 4 24 4C25.2471 4 26.4309 4.31608 27.4125 4.87315C29.1588 1.95424 32.3512 0 36 0C40.1006 0 43.6248 2.46819 45.1679 6H46C47.1046 6 48 6.89543 48 8C48 9.10457 47.1046 10 46 10C46 15.5228 41.5228 20 36 20C30.4772 20 26 15.5228 26 10C26 9.6625 26.0167 9.32891 26.0494 9H26C26 8.59315 25.2091 8 24 8C22.7909 8 22 8.59315 22 9H21.9506C21.9833 9.32891 22 9.6625 22 10C22 15.5228 17.5228 20 12 20C6.47715 20 2 15.5228 2 10ZM12 16C15.3137 16 18 13.3137 18 10C18 6.68629 15.3137 4 12 4C8.68629 4 6 6.68629 6 10C6 13.3137 8.68629 16 12 16ZM42 10C42 13.3137 39.3137 16 36 16C32.6863 16 30 13.3137 30 10C30 6.68629 32.6863 4 36 4C39.3137 4 42 6.68629 42 10Z" fill="#13A9B2"/>
</svg>
