<svg xmlns="http://www.w3.org/2000/svg" width="1440" height="616" fill="none"><g clip-path="url(#a)"><path fill="#13A9B2" d="M0 0h1440v616H0z"/><circle cx="4.307" cy="141.335" r="29.876" stroke="#FFD771" stroke-width="2.862"/><circle cx="120.77" cy="112.174" r="15.743" stroke="#FFD771" stroke-width="2.862"/><path fill="#41D2CA" d="m28.54 163.587-36.289 20.951v-41.903l36.289 20.952ZM32.385 415.193l-36.29 20.951v-41.903l36.29 20.952Z"/><circle cx="194.038" cy="287.821" r="77.821" fill="#FFD771"/><path fill="#41D2CA" d="m158.44 305.89-63.33 36.564v-73.128l63.33 36.564Z"/><path fill="#07878E" d="m235.719 305.89-89.629 51.747V254.143l89.629 51.747ZM72.826 163.587l-51.358 29.651v-59.303l51.358 29.652Z"/><circle cx="1436.13" cy="288.866" r="33.272" stroke="#FFD771" stroke-width="3.188"/><circle cx="1360.43" cy="361.709" r="8.567" fill="#FFD771" stroke="#FFD771" stroke-width="3.188"/><path fill="#41D2CA" d="m1463.12 313.647-40.41 23.333v-46.666l40.41 23.333Z"/><path fill="#13A9B3" d="m1370.68 260.942-40.42 23.333V237.61l40.42 23.332Z"/><path fill="#41D2CA" d="m1316.88 400.008-40.41 23.333v-46.666l40.41 23.333Z"/><circle cx="1221.64" cy="205.129" r="34.129" fill="#FFD771"/><path fill="#41D2CA" d="m1206.03 213.053-27.77 16.035v-32.07l27.77 16.035Z"/><path fill="#07878E" d="m1239.92 213.053-39.31 22.694v-45.388l39.31 22.694Z"/><path fill="#42BAC1" fill-rule="evenodd" d="m0 508 24.533 8.051c24.534 8.052 73.6 23.877 122.667 39.98 49.067 16.103 98.133 31.928 147.2 29.984 49.067-1.943 98.133-21.933 147.2-26.097 49.067-3.887 98.133 8.051 147.2 4.164 49.067-4.164 98.133-24.154 147.2-21.933 49.067 1.944 98.133 25.82 147.2 25.82 49.067 0 98.133-23.876 147.2-38.036 49.07-13.882 98.13-17.768 147.2-19.99 49.07-1.943 98.13-1.943 147.2 4.165 49.07 5.83 98.13 18.046 122.67 23.877l24.53 6.108V616H0V508Z" clip-rule="evenodd"/><circle r="28" fill="#FFD771" transform="scale(-1 1) rotate(-31.76 955.58 413.464)"/><circle r="9.873" stroke="#FFD771" stroke-width="1.795" transform="scale(-1 1) rotate(-31.76 873.518 509.801)"/><circle cx="1354.82" cy="525.888" r="28" fill="#FFD771" transform="rotate(-31.76 1354.82 525.888)"/><circle cx="1360.37" cy="100.374" r="13.374" fill="#FFD771"/><circle cx="1401.11" cy="453.105" r="5.991" stroke="#FFD771" stroke-width="2.229"/><circle r="5.991" stroke="#FFD771" stroke-width="2.229" transform="matrix(-1 0 0 1 1440.1 173.105)"/></g><defs><clipPath id="a"><path fill="#fff" d="M0 0h1440v616H0z"/></clipPath></defs></svg>