<svg width="1440" height="1572" viewBox="0 0 1440 1572" fill="none" xmlns="http://www.w3.org/2000/svg">
<g clip-path="url(#clip0_351_3904)">
<path fill-rule="evenodd" clip-rule="evenodd" d="M0 1435L24 1445.21C48 1455.43 96 1475.5 144 1495.93C192 1516.35 240 1536.43 288 1533.96C336 1531.5 384 1506.14 432 1500.86C480 1495.93 528 1511.07 576 1506.14C624 1500.86 672 1475.5 720 1478.32C768 1480.78 816 1511.07 864 1511.07C912 1511.07 960 1480.78 1008 1462.82C1056 1445.21 1104 1440.28 1152 1437.47C1200 1435 1248 1435 1296 1442.75C1344 1450.14 1392 1465.64 1416 1473.04L1440 1480.78V1572H1416C1392 1572 1344 1572 1296 1572C1248 1572 1200 1572 1152 1572C1104 1572 1056 1572 1008 1572C960 1572 912 1572 864 1572C816 1572 768 1572 720 1572C672 1572 624 1572 576 1572C528 1572 480 1572 432 1572C384 1572 336 1572 288 1572C240 1572 192 1572 144 1572C96 1572 48 1572 24 1572H0V1435Z" fill="#DCF2F4"/>
<circle r="48.8049" transform="matrix(-1 0 0 1 14.8045 1481.2)" fill="#FFD771"/>
<circle r="9.87317" transform="matrix(-1 0 0 1 32.4187 1402.77)" stroke="#FFD771" stroke-width="1.79512"/>
<circle cx="1431.22" cy="1473.55" r="56.5479" fill="#FFD771"/>
<path d="M1405.36 1486.68L1359.34 1513.25V1460.11L1405.36 1486.68Z" fill="#41D2CA"/>
<path d="M1461.51 1486.68L1396.38 1524.28V1449.08L1461.51 1486.68Z" fill="#07878E"/>
<path d="M151.283 1443.7L111.321 1466.78V1420.63L151.283 1443.7Z" fill="#41D2CA"/>
<path d="M200.046 1443.7L143.489 1476.36V1411.05L200.046 1443.7Z" fill="#07878E"/>
<circle cx="1329.73" cy="1498.73" r="13.1023" stroke="#FFD771" stroke-width="1.25531"/>
<circle cx="213.73" cy="1526.73" r="13.1023" stroke="#FFD771" stroke-width="1.25531"/>
<circle cx="1280.53" cy="1468.53" r="7.53188" fill="#FFD771"/>
<circle cx="119.532" cy="1529.53" r="7.53188" fill="#FFD771"/>
<circle cx="1277" cy="1421" r="3.37365" stroke="#FFD771" stroke-width="1.25531"/>
<circle cx="1319.69" cy="1433" r="3.37365" fill="#FFD771" stroke="#FFD771" stroke-width="1.25531"/>
<path d="M36.2197 1525.02L20.3051 1534.2L20.3051 1515.83L36.2197 1525.02Z" fill="#41D2CA"/>
<path d="M55.6416 1525.02L33.1184 1538.02V1512.01L55.6416 1525.02Z" fill="#07878E"/>
<circle cx="1429.73" cy="1346.73" r="13.1023" stroke="#FFD771" stroke-width="1.25531"/>
<circle cx="1377" cy="1269" r="3.37365" stroke="#FFD771" stroke-width="1.25531"/>
</g>
<defs>
<clipPath id="clip0_351_3904">
<rect width="1440" height="1572" fill="white"/>
</clipPath>
</defs>
</svg>
