<svg width="1440" height="239" viewBox="0 0 1440 239" fill="none" xmlns="http://www.w3.org/2000/svg">
<g clip-path="url(#clip0_351_3904)">
<path fill-rule="evenodd" clip-rule="evenodd" d="M0 102L24 112.213C48 122.427 96 142.501 144 162.928C192 183.355 240 203.429 288 200.964C336 198.499 384 173.141 432 167.859C480 162.928 528 178.072 576 173.141C624 167.859 672 142.501 720 145.319C768 147.784 816 178.072 864 178.072C912 178.072 960 147.784 1008 129.823C1056 112.213 1104 107.283 1152 104.465C1200 102 1248 102 1296 109.748C1344 117.144 1392 132.64 1416 140.036L1440 147.784V239H1416C1392 239 1344 239 1296 239C1248 239 1200 239 1152 239C1104 239 1056 239 1008 239C960 239 912 239 864 239C816 239 768 239 720 239C672 239 624 239 576 239C528 239 480 239 432 239C384 239 336 239 288 239C240 239 192 239 144 239C96 239 48 239 24 239H0V102Z" fill="#DCF2F4"/>
<circle r="48.8049" transform="matrix(-1 0 0 1 14.8045 148.195)" fill="#FFD771"/>
<circle r="9.87317" transform="matrix(-1 0 0 1 32.4187 69.7707)" stroke="#FFD771" stroke-width="1.79512"/>
<circle cx="1431.22" cy="140.548" r="56.5479" fill="#FFD771"/>
<path d="M1405.36 153.677L1359.34 180.246V127.109L1405.36 153.677Z" fill="#41D2CA"/>
<path d="M1461.51 153.678L1396.38 191.279V116.076L1461.51 153.678Z" fill="#07878E"/>
<path d="M151.283 110.705L111.321 133.777V87.6323L151.283 110.705Z" fill="#41D2CA"/>
<path d="M200.046 110.705L143.489 143.358V78.0515L200.046 110.705Z" fill="#07878E"/>
<circle cx="1329.73" cy="165.73" r="13.1023" stroke="#FFD771" stroke-width="1.25531"/>
<circle cx="213.73" cy="193.73" r="13.1023" stroke="#FFD771" stroke-width="1.25531"/>
<circle cx="1280.53" cy="135.532" r="7.53188" fill="#FFD771"/>
<circle cx="119.532" cy="196.532" r="7.53188" fill="#FFD771"/>
<circle cx="1277" cy="88.0013" r="3.37365" stroke="#FFD771" stroke-width="1.25531"/>
<circle cx="1319.69" cy="100.001" r="3.37365" fill="#FFD771" stroke="#FFD771" stroke-width="1.25531"/>
<path d="M36.2197 192.016L20.3051 201.204L20.3051 182.827L36.2197 192.016Z" fill="#41D2CA"/>
<path d="M55.6416 192.015L33.1184 205.019V179.012L55.6416 192.015Z" fill="#07878E"/>
<circle cx="1429.73" cy="13.73" r="13.1023" stroke="#FFD771" stroke-width="1.25531"/>
</g>
<defs>
<clipPath id="clip0_351_3904">
<rect width="1440" height="239" fill="white"/>
</clipPath>
</defs>
</svg>
