<svg width="37" height="44" viewBox="0 0 37 44" fill="none" xmlns="http://www.w3.org/2000/svg">
<path fill-rule="evenodd" clip-rule="evenodd" d="M18 44C6 38.6542 0 33.3208 0 28V8C0 6.46482 0.589197 6.10803 2.21985 5.12058L2.21987 5.12057C2.71359 4.8216 3.30278 4.46481 4 4C4.32359 3.78428 11.1264 0 18 0C23.9905 0 29 2 32 4C32.6972 4.46482 33.2864 4.82161 33.7801 5.12058C35.4108 6.10803 36 6.46482 36 8C36.0394 8.43447 36.0201 17.6742 36.0076 23.5894C36.0034 25.6066 36 27.2371 36 28C36 33.3333 30 38.6667 18 44ZM32 28C32 27.5394 32.0012 26.7676 32.0037 25.5094L32.0118 21.6028C32.0143 20.339 32.0164 19.2545 32.0181 18.2196C32.0254 13.7553 32.0235 9.92364 32.0192 8.73857L31.7444 8.56806C31.0977 8.16684 30.2547 7.64389 29.7812 7.3282C26.8286 5.35983 22.5204 4 18 4C13.6762 4 8.05727 6.10255 6.2188 7.3282C5.74528 7.64388 4.90233 8.16683 4.2556 8.56805L4.25558 8.56806L4 8.72667V28C4 31.0169 8.45822 35.1375 18.0019 39.604C27.5443 35.1475 32 31.0285 32 28ZM24.5857 14.5859L15.9999 23.1717L11.4141 18.5859L8.58569 21.4144L15.9999 28.8286L27.4141 17.4144L24.5857 14.5859Z" fill="#13A9B2"/>
</svg>
