<svg xmlns="http://www.w3.org/2000/svg" width="1440" height="180" fill="none"><g clip-path="url(#a)"><circle r="48.805" fill="#FFD771" transform="matrix(-1 0 0 1 14.805 89.195)"/><circle r="9.873" stroke="#FFD771" stroke-width="1.795" transform="matrix(-1 0 0 1 32.419 10.77)"/><path fill="#B8E5E8" fill-rule="evenodd" d="m0 43 24 10.213c24 10.214 72 30.288 120 50.715 48 20.427 96 40.501 144 38.036 48-2.465 96-27.823 144-33.105 48-4.931 96 10.213 144 5.282 48-5.282 96-30.64 144-27.822 48 2.465 96 32.753 144 32.753s96-30.288 144-48.25c48-17.609 96-22.54 144-25.357 48-2.465 96-2.465 144 5.283 48 7.396 96 22.892 120 30.288l24 7.748V180H0V43Z" clip-rule="evenodd"/><path fill="#41D2CA" d="m151.283 51.705-39.962 23.072V28.632l39.962 23.073Z"/><path fill="#07878E" d="m200.046 51.705-56.557 32.653V19.052l56.557 32.653Z"/><circle cx="213.73" cy="134.73" r="13.102" stroke="#FFD771" stroke-width="1.255"/><circle cx="119.532" cy="137.532" r="7.532" fill="#FFD771"/><path fill="#41D2CA" d="m36.22 133.016-15.915 9.188v-18.377l15.915 9.189Z"/><path fill="#07878E" d="m55.642 133.015-22.524 13.004v-26.007l22.524 13.003Z"/></g><defs><clipPath id="a"><path fill="#fff" d="M0 0h1440v180H0z"/></clipPath></defs></svg>