<svg xmlns="http://www.w3.org/2000/svg" width="1440" height="236" fill="none"><circle r="48.805" fill="#FFD771" transform="matrix(-1 0 0 1 1360.8 115.805)"/><circle r="9.873" stroke="#FFD771" stroke-width="1.795" transform="matrix(-1 0 0 1 34.77 87.77)"/><circle cx="1197.73" cy="98.73" r="13.102" stroke="#FFD771" stroke-width="1.255"/><path fill="#B8E5E8" fill-rule="evenodd" d="m0 99 24 10.213c24 10.214 72 30.288 120 50.715 48 20.427 96 40.501 144 38.036 48-2.465 96-27.823 144-33.105 48-4.931 96 10.213 144 5.282 48-5.282 96-30.64 144-27.822 48 2.465 96 32.753 144 32.753s96-30.288 144-48.249c48-17.61 96-22.54 144-25.358 48-2.465 96-2.465 144 5.283 48 7.396 96 22.892 120 30.288l24 7.748V236H0V99Z" clip-rule="evenodd"/><circle r="20" fill="#FFD771" transform="matrix(-1 0 0 1 229 129)"/><path fill="#41D2CA" d="m73.283 190.705-39.962 23.072v-46.145l39.962 23.073Z"/><path fill="#07878E" d="m122.046 190.705-56.557 32.653v-65.307l56.557 32.654Z"/><circle cx="1396.73" cy="73.73" r="13.102" stroke="#FFD771" stroke-width="1.255"/><circle cx="63.532" cy="59.532" r="7.532" fill="#FFD771"/><path fill="#41D2CA" d="m189.22 99.016-15.915 9.188V89.827l15.915 9.189Z"/><path fill="#07878E" d="m208.642 99.016-22.524 13.003V86.012l22.524 13.004Z"/><path fill="#41D2CA" d="m1285.36 43.418-46.02 26.569V16.849l46.02 26.57Z"/><path fill="#07878E" d="m1341.51 43.418-65.13 37.602V5.817l65.13 37.601Z"/><circle cx="989.532" cy="104.532" r="7.532" fill="#FFD771"/><circle cx="296.001" cy="95.001" r="3.374" stroke="#FFD771" stroke-width="1.255"/><circle cx="1010" cy="74.001" r="3.374" fill="#FFD771" stroke="#FFD771" stroke-width="1.255"/></svg>