<svg xmlns="http://www.w3.org/2000/svg" width="48" height="48" fill="none"><path fill="#13A9B2" fill-rule="evenodd" d="M2 26a2 2 0 1 1 0-4h.832C4.375 18.468 7.9 16 12 16a9.995 9.995 0 0 1 8.587 4.873C21.57 20.316 22.753 20 24 20c1.247 0 2.43.316 3.413.873A9.995 9.995 0 0 1 36 16c4.1 0 7.625 2.468 9.168 6H46a2 2 0 1 1 0 4c0 5.523-4.477 10-10 10s-10-4.477-10-10c0-.337.017-.671.05-1H26c0-.407-.79-1-2-1s-2 .593-2 1h-.05c.033.329.05.663.05 1 0 5.523-4.477 10-10 10S2 31.523 2 26Zm10 6a6 6 0 1 0 0-12 6 6 0 0 0 0 12Zm30-6a6 6 0 1 1-12 0 6 6 0 0 1 12 0Z" clip-rule="evenodd"/></svg>