<svg xmlns="http://www.w3.org/2000/svg" width="1440" height="239" fill="none"><g clip-path="url(#a)"><path fill="#DCF2F4" fill-rule="evenodd" d="m0 102 24 10.213c24 10.214 72 30.288 120 50.715 48 20.427 96 40.501 144 38.036 48-2.465 96-27.823 144-33.105 48-4.931 96 10.213 144 5.282 48-5.282 96-30.64 144-27.822 48 2.465 96 32.753 144 32.753s96-30.288 144-48.249c48-17.61 96-22.54 144-25.358 48-2.465 96-2.465 144 5.283 48 7.396 96 22.892 120 30.288l24 7.748V239H0V102Z" clip-rule="evenodd"/><circle r="48.805" fill="#FFD771" transform="matrix(-1 0 0 1 14.805 148.195)"/><circle r="9.873" stroke="#FFD771" stroke-width="1.795" transform="matrix(-1 0 0 1 32.419 69.77)"/><circle cx="1431.22" cy="140.548" r="56.548" fill="#FFD771"/><path fill="#41D2CA" d="m1405.36 153.677-46.02 26.569v-53.137l46.02 26.568Z"/><path fill="#07878E" d="m1461.51 153.678-65.13 37.601v-75.203l65.13 37.602Z"/><path fill="#41D2CA" d="m151.283 110.705-39.962 23.072V87.632l39.962 23.073Z"/><path fill="#07878E" d="m200.046 110.705-56.557 32.653V78.052l56.557 32.653Z"/><circle cx="1329.73" cy="165.73" r="13.102" stroke="#FFD771" stroke-width="1.255"/><circle cx="213.73" cy="193.73" r="13.102" stroke="#FFD771" stroke-width="1.255"/><circle cx="1280.53" cy="135.532" r="7.532" fill="#FFD771"/><circle cx="119.532" cy="196.532" r="7.532" fill="#FFD771"/><circle cx="1277" cy="88.001" r="3.374" stroke="#FFD771" stroke-width="1.255"/><circle cx="1319.69" cy="100.001" r="3.374" fill="#FFD771" stroke="#FFD771" stroke-width="1.255"/><path fill="#41D2CA" d="m36.22 192.016-15.915 9.188v-18.377l15.915 9.189Z"/><path fill="#07878E" d="m55.642 192.015-22.524 13.004v-26.007l22.524 13.003Z"/><circle cx="1429.73" cy="13.73" r="13.102" stroke="#FFD771" stroke-width="1.255"/></g><defs><clipPath id="a"><path fill="#fff" d="M0 0h1440v239H0z"/></clipPath></defs></svg>