<svg xmlns="http://www.w3.org/2000/svg" width="48" height="48" fill="none"><path fill="#13A9B2" fill-rule="evenodd" d="M24 46C12 40.654 6 35.32 6 30V10c0-1.535.59-1.892 2.22-2.88A45.786 45.786 0 0 0 10 6c.324-.216 7.126-4 14-4 5.99 0 11 2 14 4 .697.465 1.286.822 1.78 1.12C41.41 8.109 42 8.466 42 10c.04.434.02 9.674.008 15.59C42.003 27.606 42 29.236 42 30c0 5.333-6 10.667-18 16Zm14-16 .004-2.49.008-3.907.006-3.383c.007-4.465.005-8.296.001-9.481l-.275-.17c-.646-.402-1.49-.925-1.963-1.24C32.83 7.358 28.521 6 24 6c-4.324 0-9.943 2.103-11.781 3.328-.474.316-1.317.839-1.963 1.24l-.256.159V30c0 3.017 4.458 7.138 14.002 11.604C33.544 37.148 38 33.029 38 30Zm-7.414-13.414L22 25.172l-4.586-4.586-2.828 2.828L22 30.83l11.414-11.415-2.828-2.828Z" clip-rule="evenodd"/></svg>